<svg width="50" height="50" viewBox="0 0 50 50" fill="none" xmlns="http://www.w3.org/2000/svg">
<path fill-rule="evenodd" clip-rule="evenodd" d="M2.7749 35.3007C7.43947 30.1179 14.1706 28.9766 17.748 28.9766C21.4809 28.9765 27.6225 30.1941 32.5765 35.1481C34.1386 36.7102 34.1386 39.2429 32.5765 40.805C31.0144 42.3671 28.4817 42.3671 26.9196 40.805C23.8736 37.759 20.0152 36.9765 17.7481 36.9766C15.3256 36.9766 11.2567 37.8353 8.72126 40.6524C7.24342 42.2945 4.71426 42.4276 3.07222 40.9497C1.43018 39.4719 1.29707 36.9427 2.7749 35.3007Z" fill="#985184"/>
<path fill-rule="evenodd" clip-rule="evenodd" d="M2.11621 36.3008L14.1162 10.3008L21.3799 13.6532L9.37989 39.6532L2.11621 36.3008Z" fill="#712258"/>
<path d="M39.748 8.97656C41.9572 8.97656 43.748 10.7674 43.748 12.9766V37.9766C43.748 40.1857 41.9572 41.9766 39.748 41.9766C37.5389 41.9766 35.748 40.1857 35.748 37.9766V12.9766C35.748 10.7674 37.5389 8.97656 39.748 8.97656Z" fill="#FBB945"/>
<path d="M9.37916 39.6533C9.20939 40.0211 8.98977 40.35 8.73366 40.6377C8.72933 40.6425 8.72528 40.6475 8.72096 40.6523C8.49348 40.9051 8.24022 41.1219 7.96999 41.3027C7.71217 41.4747 7.43551 41.6148 7.14674 41.7227C6.40539 41.9989 5.59656 42.0511 4.82741 41.8701C4.57205 41.8095 4.31904 41.7226 4.07155 41.6084C3.9489 41.5518 3.83012 41.4899 3.71608 41.4229C3.4903 41.2894 3.27399 41.1324 3.07155 40.9502C2.87135 40.77 2.6935 40.5741 2.53834 40.3662C2.47529 40.2814 2.41654 40.1937 2.36061 40.1045C2.31372 40.0299 2.26836 39.9549 2.22682 39.8779C2.08635 39.6173 1.97671 39.3413 1.89674 39.0566C1.69617 38.3387 1.6973 37.5739 1.90749 36.8535C1.96228 36.6671 2.03164 36.4825 2.11549 36.3008L2.12428 36.2803C2.28747 35.9321 2.50414 35.6014 2.77467 35.3008C6.14588 31.5552 10.5962 29.9203 14.1555 29.3018L9.37916 39.6533Z" fill="#985184"/>
<path d="M15.876 8.4412C16.9321 7.88294 18.2252 7.80253 19.3955 8.33183C19.4092 8.338 19.4229 8.34405 19.4366 8.35038C21.4335 9.28012 22.3035 11.6505 21.3799 13.6521L17.7481 21.5193L14.1172 13.6521C13.3085 11.8995 13.8741 9.863 15.3682 8.75956C15.4312 8.71303 15.4961 8.66937 15.5616 8.62675C15.6627 8.56086 15.7674 8.49861 15.876 8.4412Z" fill="#712258"/>
<path fill-rule="evenodd" clip-rule="evenodd" d="M16.0728 8.34471C14.067 9.27047 13.1914 11.647 14.1172 13.6528L26.1172 39.6528C27.043 41.6586 29.4195 42.5341 31.4253 41.6084C33.4311 40.6826 34.3066 38.3061 33.3809 36.3003L21.3809 10.3003C20.4551 8.29451 18.0786 7.41896 16.0728 8.34471Z" fill="#FBB945"/>
<path d="M21.3457 29.3135C24.8066 29.9432 29.0013 31.5726 32.5771 35.1484C32.9173 35.4886 33.183 35.8749 33.375 36.2871L33.3818 36.3008C33.4099 36.3616 33.4362 36.4229 33.4609 36.4844C34.0397 37.9261 33.745 39.6366 32.5771 40.8047C32.3551 41.0268 32.1122 41.2161 31.8564 41.375C31.7191 41.4599 31.5761 41.539 31.4258 41.6084C31.364 41.6369 31.3017 41.6634 31.2393 41.6885C30.3753 42.035 29.4155 42.0677 28.5332 41.7871C28.2985 41.7121 28.0709 41.6158 27.8535 41.499C27.7855 41.4624 27.7185 41.4236 27.6523 41.3828C27.4996 41.2889 27.3526 41.1847 27.2129 41.0703C27.1844 41.0469 27.1569 41.0223 27.1289 40.998C26.7126 40.6374 26.364 40.185 26.1182 39.6523L21.3457 29.3135Z" fill="#953B24"/>
</svg>
